<svg width="88" height="36" viewBox="0 0 88 36" fill="none" xmlns="http://www.w3.org/2000/svg">
<path d="M0.474514 23.936C1.01851 23.504 1.26651 23.304 1.21851 23.336C2.78651 22.04 4.01851 20.976 4.91451 20.144C5.82651 19.312 6.59451 18.44 7.21851 17.528C7.84251 16.616 8.15451 15.728 8.15451 14.864C8.15451 14.208 8.00251 13.696 7.69851 13.328C7.39451 12.96 6.93851 12.776 6.33051 12.776C5.72251 12.776 5.24251 13.008 4.89051 13.472C4.55451 13.92 4.38651 14.56 4.38651 15.392H0.426514C0.458514 14.032 0.746514 12.896 1.29051 11.984C1.85051 11.072 2.57851 10.4 3.47451 9.968C4.38651 9.536 5.39451 9.32 6.49851 9.32C8.40251 9.32 9.83451 9.808 10.7945 10.784C11.7705 11.76 12.2585 13.032 12.2585 14.6C12.2585 16.312 11.6745 17.904 10.5065 19.376C9.33851 20.832 7.85051 22.256 6.04251 23.648H12.5225V26.984H0.474514V23.936Z" fill="white"/>
<path d="M18.8415 16.064C19.3215 15.328 19.9215 14.752 20.6415 14.336C21.3615 13.904 22.1614 13.688 23.0415 13.688V18.032H21.9135C20.8895 18.032 20.1215 18.256 19.6095 18.704C19.0975 19.136 18.8415 19.904 18.8415 21.008V27.224H14.7375V13.832H18.8415V16.064Z" fill="white"/>
<path d="M27.0671 12.44C26.3471 12.44 25.7551 12.232 25.2911 11.816C24.8431 11.384 24.6191 10.856 24.6191 10.232C24.6191 9.592 24.8431 9.064 25.2911 8.648C25.7551 8.216 26.3471 8 27.0671 8C27.7711 8 28.3471 8.216 28.7951 8.648C29.2591 9.064 29.4911 9.592 29.4911 10.232C29.4911 10.856 29.2591 11.384 28.7951 11.816C28.3471 12.232 27.7711 12.44 27.0671 12.44ZM29.1071 13.832V27.224H25.0031V13.832H29.1071Z" fill="white"/>
<path d="M37.5292 27.416C36.3612 27.416 35.3212 27.216 34.4092 26.816C33.4972 26.416 32.7772 25.872 32.2492 25.184C31.7212 24.48 31.4252 23.696 31.3612 22.832H35.4172C35.4652 23.296 35.6812 23.672 36.0652 23.96C36.4492 24.248 36.9212 24.392 37.4812 24.392C37.9932 24.392 38.3852 24.296 38.6572 24.104C38.9452 23.896 39.0892 23.632 39.0892 23.312C39.0892 22.928 38.8892 22.648 38.4892 22.472C38.0892 22.28 37.4412 22.072 36.5452 21.848C35.5852 21.624 34.7852 21.392 34.1452 21.152C33.5052 20.896 32.9532 20.504 32.4892 19.976C32.0252 19.432 31.7932 18.704 31.7932 17.792C31.7932 17.024 32.0012 16.328 32.4172 15.704C32.8492 15.064 33.4732 14.56 34.2892 14.192C35.1212 13.824 36.1052 13.64 37.2412 13.64C38.9212 13.64 40.2412 14.056 41.2012 14.888C42.1772 15.72 42.7372 16.824 42.8812 18.2H39.0892C39.0252 17.736 38.8172 17.368 38.4652 17.096C38.1292 16.824 37.6812 16.688 37.1212 16.688C36.6412 16.688 36.2732 16.784 36.0172 16.976C35.7612 17.152 35.6332 17.4 35.6332 17.72C35.6332 18.104 35.8332 18.392 36.2332 18.584C36.6492 18.776 37.2892 18.968 38.1532 19.16C39.1452 19.416 39.9532 19.672 40.5772 19.928C41.2012 20.168 41.7452 20.568 42.2092 21.128C42.6892 21.672 42.9372 22.408 42.9532 23.336C42.9532 24.12 42.7292 24.824 42.2812 25.448C41.8492 26.056 41.2172 26.536 40.3852 26.888C39.5692 27.24 38.6172 27.416 37.5292 27.416Z" fill="white"/>
<path d="M62.552 13.688C64.216 13.688 65.536 14.192 66.512 15.2C67.504 16.208 68 17.608 68 19.4V27.224H63.92V19.952C63.92 19.088 63.688 18.424 63.224 17.96C62.776 17.48 62.152 17.24 61.352 17.24C60.552 17.24 59.92 17.48 59.456 17.96C59.008 18.424 58.784 19.088 58.784 19.952V27.224H54.704V19.952C54.704 19.088 54.472 18.424 54.008 17.96C53.56 17.48 52.936 17.24 52.136 17.24C51.336 17.24 50.704 17.48 50.24 17.96C49.792 18.424 49.568 19.088 49.568 19.952V27.224H45.464V13.832H49.568V15.512C49.984 14.952 50.528 14.512 51.2 14.192C51.872 13.856 52.632 13.688 53.48 13.688C54.488 13.688 55.384 13.904 56.168 14.336C56.968 14.768 57.592 15.384 58.04 16.184C58.504 15.448 59.136 14.848 59.936 14.384C60.736 13.92 61.608 13.688 62.552 13.688Z" fill="white"/>
<path d="M73.2973 6.20995C72.9493 6.09395 72.946 5.90661 73.304 5.78728L86.0286 1.54595C86.3813 1.42861 86.5833 1.62595 86.4846 1.97128L82.8486 14.6953C82.7486 15.0479 82.5453 15.0599 82.396 14.7253L80 9.33328L84 3.99995L78.6666 7.99995L73.2973 6.20995Z" fill="#5243C2"/>
</svg>
