<svg width="88" height="36" viewBox="0 0 88 36" fill="none" xmlns="http://www.w3.org/2000/svg">
<path d="M0.048 23.936C0.592 23.504 0.84 23.304 0.792 23.336C2.36 22.04 3.592 20.976 4.488 20.144C5.4 19.312 6.168 18.44 6.792 17.528C7.416 16.616 7.728 15.728 7.728 14.864C7.728 14.208 7.576 13.696 7.272 13.328C6.968 12.96 6.512 12.776 5.904 12.776C5.296 12.776 4.816 13.008 4.464 13.472C4.128 13.92 3.96 14.56 3.96 15.392H0C0.032 14.032 0.32 12.896 0.864 11.984C1.424 11.072 2.152 10.4 3.048 9.968C3.96 9.536 4.968 9.32 6.072 9.32C7.976 9.32 9.408 9.808 10.368 10.784C11.344 11.76 11.832 13.032 11.832 14.6C11.832 16.312 11.248 17.904 10.08 19.376C8.912 20.832 7.424 22.256 5.616 23.648H12.096V26.984H0.048V23.936Z" fill="#161414"/>
<path d="M18.4149 16.064C18.8949 15.328 19.4949 14.752 20.2149 14.336C20.9349 13.904 21.7349 13.688 22.6149 13.688V18.032H21.4869C20.4629 18.032 19.6949 18.256 19.1829 18.704C18.6709 19.136 18.4149 19.904 18.4149 21.008V27.224H14.3109V13.832H18.4149V16.064Z" fill="#161414"/>
<path d="M26.6406 12.44C25.9206 12.44 25.3286 12.232 24.8646 11.816C24.4166 11.384 24.1926 10.856 24.1926 10.232C24.1926 9.592 24.4166 9.064 24.8646 8.648C25.3286 8.216 25.9206 8 26.6406 8C27.3446 8 27.9206 8.216 28.3686 8.648C28.8326 9.064 29.0646 9.592 29.0646 10.232C29.0646 10.856 28.8326 11.384 28.3686 11.816C27.9206 12.232 27.3446 12.44 26.6406 12.44ZM28.6806 13.832V27.224H24.5766V13.832H28.6806Z" fill="#161414"/>
<path d="M37.1027 27.416C35.9347 27.416 34.8947 27.216 33.9827 26.816C33.0707 26.416 32.3507 25.872 31.8227 25.184C31.2947 24.48 30.9987 23.696 30.9347 22.832H34.9907C35.0387 23.296 35.2547 23.672 35.6387 23.96C36.0227 24.248 36.4947 24.392 37.0547 24.392C37.5667 24.392 37.9587 24.296 38.2307 24.104C38.5187 23.896 38.6627 23.632 38.6627 23.312C38.6627 22.928 38.4627 22.648 38.0627 22.472C37.6627 22.28 37.0147 22.072 36.1187 21.848C35.1587 21.624 34.3587 21.392 33.7187 21.152C33.0787 20.896 32.5267 20.504 32.0627 19.976C31.5987 19.432 31.3667 18.704 31.3667 17.792C31.3667 17.024 31.5747 16.328 31.9907 15.704C32.4227 15.064 33.0467 14.56 33.8627 14.192C34.6947 13.824 35.6787 13.64 36.8147 13.64C38.4947 13.64 39.8147 14.056 40.7747 14.888C41.7507 15.72 42.3107 16.824 42.4547 18.2H38.6627C38.5987 17.736 38.3907 17.368 38.0387 17.096C37.7027 16.824 37.2547 16.688 36.6947 16.688C36.2147 16.688 35.8467 16.784 35.5907 16.976C35.3347 17.152 35.2067 17.4 35.2067 17.72C35.2067 18.104 35.4067 18.392 35.8067 18.584C36.2227 18.776 36.8627 18.968 37.7267 19.16C38.7187 19.416 39.5267 19.672 40.1507 19.928C40.7747 20.168 41.3187 20.568 41.7827 21.128C42.2627 21.672 42.5107 22.408 42.5267 23.336C42.5267 24.12 42.3027 24.824 41.8547 25.448C41.4227 26.056 40.7907 26.536 39.9587 26.888C39.1427 27.24 38.1907 27.416 37.1027 27.416Z" fill="#161414"/>
<path d="M62.1255 13.688C63.7895 13.688 65.1095 14.192 66.0855 15.2C67.0775 16.208 67.5735 17.608 67.5735 19.4V27.224H63.4935V19.952C63.4935 19.088 63.2615 18.424 62.7975 17.96C62.3495 17.48 61.7255 17.24 60.9255 17.24C60.1255 17.24 59.4935 17.48 59.0295 17.96C58.5815 18.424 58.3575 19.088 58.3575 19.952V27.224H54.2775V19.952C54.2775 19.088 54.0455 18.424 53.5815 17.96C53.1335 17.48 52.5095 17.24 51.7095 17.24C50.9095 17.24 50.2775 17.48 49.8135 17.96C49.3655 18.424 49.1415 19.088 49.1415 19.952V27.224H45.0375V13.832H49.1415V15.512C49.5575 14.952 50.1015 14.512 50.7735 14.192C51.4455 13.856 52.2055 13.688 53.0535 13.688C54.0615 13.688 54.9575 13.904 55.7415 14.336C56.5415 14.768 57.1655 15.384 57.6135 16.184C58.0775 15.448 58.7095 14.848 59.5095 14.384C60.3095 13.92 61.1815 13.688 62.1255 13.688Z" fill="#161414"/>
<path d="M72.8708 6.20995C72.5228 6.09395 72.5195 5.90661 72.8775 5.78728L85.6022 1.54595C85.9548 1.42861 86.1568 1.62595 86.0582 1.97128L82.4222 14.6953C82.3222 15.0479 82.1188 15.0599 81.9695 14.7253L79.5735 9.33328L83.5735 3.99995L78.2402 7.99995L72.8708 6.20995Z" fill="#5243C2"/>
</svg>
